<?xml version="1.0" standalone="no"?>
<!DOCTYPE svg PUBLIC "-//W3C//DTD SVG 20010904//EN"
 "http://www.w3.org/TR/2001/REC-SVG-20010904/DTD/svg10.dtd">
<svg version="1.0" xmlns="http://www.w3.org/2000/svg"
 width="768.000000pt" height="768.000000pt" viewBox="0 0 768.000000 768.000000"
 preserveAspectRatio="xMidYMid meet">
<metadata>
Created by potrace 1.10, written by Peter Selinger 2001-2011
</metadata>
<g transform="translate(0.000000,768.000000) scale(0.100000,-0.100000)"
fill="#000000" stroke="none">
<path d="M3275 7620 c-11 -5 -42 -9 -68 -9 -44 -1 -96 -11 -222 -42 -22 -6
-64 -14 -93 -19 -29 -5 -58 -13 -65 -18 -7 -5 -28 -12 -47 -15 -39 -5 -90 -22
-133 -43 -16 -8 -38 -14 -50 -14 -12 0 -35 -7 -51 -15 -15 -8 -36 -15 -46 -15
-10 0 -23 -7 -30 -15 -7 -8 -22 -15 -34 -15 -12 0 -31 -7 -42 -15 -10 -8 -27
-15 -36 -15 -10 0 -46 -14 -80 -31 -35 -17 -79 -38 -98 -46 -19 -8 -42 -19
-50 -24 -8 -4 -40 -20 -70 -35 -30 -15 -57 -29 -60 -33 -3 -3 -25 -16 -50 -29
-25 -13 -58 -32 -75 -42 -16 -11 -37 -23 -45 -27 -8 -3 -31 -19 -51 -35 -20
-15 -41 -28 -46 -28 -9 0 -23 -10 -70 -50 -7 -5 -15 -10 -18 -10 -5 0 -73 -48
-110 -78 -5 -4 -41 -32 -80 -61 -216 -163 -565 -522 -705 -725 -8 -11 -34 -47
-57 -78 -24 -31 -43 -61 -43 -67 0 -6 -3 -11 -7 -11 -5 0 -21 -23 -38 -51 -16
-28 -38 -63 -47 -78 -10 -14 -22 -35 -28 -46 -23 -42 -38 -67 -49 -78 -6 -6
-11 -19 -11 -28 0 -10 -4 -19 -8 -21 -5 -1 -32 -52 -61 -113 -29 -60 -57 -117
-62 -125 -5 -8 -12 -22 -15 -30 -3 -8 -12 -27 -20 -42 -8 -14 -14 -35 -14 -46
0 -11 -7 -25 -15 -32 -8 -7 -15 -22 -15 -34 0 -11 -7 -30 -15 -40 -8 -11 -15
-27 -15 -37 0 -9 -7 -30 -15 -45 -8 -16 -15 -36 -15 -45 0 -9 -7 -30 -15 -45
-8 -16 -15 -38 -15 -49 -1 -11 -7 -31 -15 -45 -8 -14 -14 -37 -15 -51 0 -15
-7 -40 -15 -55 -8 -16 -15 -43 -15 -60 0 -17 -7 -48 -15 -67 -8 -20 -15 -53
-15 -72 0 -20 -5 -46 -11 -57 -22 -42 -49 -399 -34 -456 7 -25 8 -26 15 -7 5
11 9 34 9 50 1 17 8 50 17 75 15 43 25 96 43 240 5 36 13 81 19 100 6 19 16
58 22 85 6 28 15 68 20 90 14 64 136 425 164 488 14 32 26 62 26 67 0 9 89
197 109 230 5 8 24 44 42 80 17 36 40 76 50 89 11 13 19 29 19 35 0 6 20 38
45 71 25 33 45 64 45 70 0 5 15 31 33 56 17 25 47 68 66 95 19 27 58 76 86
109 29 33 57 70 63 81 29 55 329 362 446 457 48 40 120 98 158 130 38 31 74
57 80 57 6 0 20 9 32 20 43 39 117 90 221 152 161 96 162 96 285 158 184 92
223 110 237 110 8 0 33 9 56 20 85 41 383 135 527 165 41 9 93 21 115 26 22 5
67 13 100 19 33 5 107 19 165 31 58 11 125 24 150 29 25 5 54 12 64 16 19 7
19 8 0 15 -26 10 -264 10 -289 -1z"/>
<path d="M4086 7621 c-8 -12 19 -21 65 -21 22 0 50 -5 62 -12 21 -11 62 -19
237 -48 77 -12 99 -17 305 -69 66 -17 140 -36 165 -42 125 -31 607 -230 700
-289 8 -5 44 -27 80 -47 36 -21 72 -42 80 -48 9 -5 31 -19 49 -30 18 -11 65
-43 105 -72 39 -29 82 -58 96 -65 14 -7 44 -28 67 -48 23 -19 57 -48 75 -63
19 -15 46 -36 61 -46 35 -23 205 -181 317 -296 79 -81 168 -186 270 -321 19
-25 51 -66 71 -90 34 -43 104 -151 164 -257 17 -29 39 -66 50 -83 34 -47 151
-291 205 -424 20 -47 36 -91 99 -265 18 -51 69 -236 84 -310 8 -38 20 -90 26
-115 10 -45 38 -199 46 -255 2 -16 9 -51 14 -77 6 -27 15 -68 19 -93 5 -25 12
-48 15 -52 15 -14 19 34 13 164 -8 197 -17 270 -56 423 -6 25 -15 65 -19 90
-4 25 -13 55 -19 67 -7 12 -12 34 -12 50 -1 15 -7 39 -15 53 -8 14 -14 33 -15
43 0 11 -6 33 -13 50 -20 46 -38 98 -46 132 -4 17 -12 39 -18 50 -5 11 -17 35
-26 53 -9 19 -17 40 -17 48 0 7 -14 42 -31 76 -17 35 -38 79 -46 98 -8 19 -19
42 -24 50 -4 8 -20 40 -35 70 -15 30 -29 57 -33 60 -3 3 -16 25 -29 50 -13 25
-32 59 -42 75 -11 17 -23 36 -27 44 -9 20 -70 113 -83 128 -5 7 -10 15 -10 18
0 4 -19 32 -43 63 -23 31 -50 69 -59 83 -9 14 -23 32 -30 40 -8 8 -31 37 -52
64 -118 156 -436 476 -586 590 -36 27 -71 55 -79 63 -8 7 -26 21 -40 30 -14 9
-52 36 -83 59 -31 24 -61 43 -67 43 -6 0 -11 4 -11 8 0 5 -10 14 -22 21 -13 6
-36 20 -53 31 -16 11 -39 24 -50 30 -11 6 -33 19 -50 30 -16 11 -39 24 -50 30
-11 6 -33 19 -50 30 -16 11 -37 22 -45 26 -8 3 -22 10 -30 15 -8 5 -22 12 -30
15 -8 3 -22 10 -30 15 -8 5 -22 12 -30 15 -8 3 -44 20 -80 37 -66 31 -107 49
-170 75 -19 8 -48 21 -63 28 -16 8 -38 14 -50 14 -12 0 -31 7 -41 15 -11 8
-29 15 -40 15 -12 0 -30 7 -40 15 -11 8 -32 15 -47 15 -15 0 -40 7 -55 15 -16
8 -40 15 -54 15 -14 1 -36 7 -50 15 -14 8 -40 14 -58 15 -18 0 -43 5 -54 11
-12 7 -47 15 -77 20 -61 9 -155 24 -242 39 -70 13 -306 13 -313 1z"/>
<path d="M1820 3830 l0 -2405 2010 0 2010 0 0 2405 0 2405 -2010 0 -2010 0 0
-2405z m3914 2299 l26 -20 0 -2274 0 -2274 -23 -26 -22 -26 -1305 0 c-718 0
-1565 1 -1883 1 l-578 0 -24 25 -25 24 0 2267 0 2268 27 28 27 28 1877 0 1876
0 27 -21z"/>
<path d="M2795 6020 c-749 -6 -692 0 -751 -70 -53 -63 -54 -67 -54 -414 0
-351 1 -360 57 -426 15 -18 45 -41 68 -51 38 -18 111 -19 1715 -19 1604 0
1677 1 1715 19 23 10 53 33 68 51 57 67 58 77 58 425 1 358 1 359 -70 432 -35
36 -48 42 -93 47 -74 8 -1891 12 -2713 6z m2775 -105 c0 -5 0 -180 1 -388 l0
-378 -1741 0 -1741 0 0 378 c1 208 1 383 1 388 0 14 3480 14 3480 0z"/>
<path d="M5143 5754 c-54 -23 -83 -72 -90 -152 -3 -38 -2 -95 2 -127 6 -51 12
-63 52 -101 42 -41 49 -44 99 -44 112 0 174 78 174 220 0 74 -16 129 -48 164
-50 54 -123 69 -189 40z m118 -61 c38 -23 53 -76 46 -172 -4 -68 -7 -77 -36
-103 -39 -35 -72 -36 -117 -2 l-35 27 3 111 3 110 34 23 c41 28 63 29 102 6z"/>
<path d="M4070 4831 c-86 -11 -107 -21 -159 -75 -24 -25 -58 -48 -74 -52 -25
-5 -35 0 -71 33 -22 22 -57 50 -77 61 -36 22 -39 22 -658 22 -688 0 -654 3
-726 -67 -58 -57 -68 -111 -62 -354 2 -114 9 -206 16 -223 6 -15 27 -47 46
-69 19 -22 35 -48 35 -56 0 -9 -17 -32 -39 -52 -21 -20 -51 -62 -65 -92 -27
-54 -27 -56 -25 -258 1 -229 13 -286 69 -344 41 -42 39 -72 -9 -130 -58 -71
-64 -102 -59 -347 4 -233 4 -230 71 -311 45 -53 44 -65 -11 -128 -56 -66 -57
-67 -59 -308 -3 -257 2 -279 81 -355 69 -68 106 -76 340 -76 224 0 253 7 320
76 52 54 81 54 144 -2 75 -66 111 -74 327 -74 218 0 256 9 342 81 31 27 60 49
63 49 3 0 30 -20 59 -45 89 -76 98 -78 331 -79 113 0 222 3 242 7 25 5 62 29
105 66 38 32 75 60 84 63 11 4 28 -6 50 -29 19 -19 46 -41 61 -49 43 -22 233
-32 418 -20 114 7 134 14 186 67 l49 50 0 647 0 647 -38 54 c-21 30 -45 60
-54 66 -14 11 -14 13 3 26 31 23 105 112 116 139 11 27 12 410 2 469 -9 50
-19 67 -76 134 l-50 58 40 52 c69 90 67 81 66 317 0 242 -6 273 -62 332 -53
55 -96 67 -252 71 -257 7 -360 -12 -391 -70 -12 -23 -65 -53 -92 -53 -8 0 -39
24 -69 54 -29 29 -69 59 -88 65 -43 14 -313 22 -400 12z m-353 -128 c22 -27
23 -34 23 -280 l0 -251 -31 -26 -31 -26 -652 0 c-619 0 -654 1 -674 18 -12 10
-26 31 -32 46 -13 34 -14 439 -1 484 21 71 -25 66 675 72 347 3 647 2 666 -2
20 -4 44 -19 57 -35z m1357 37 c297 0 286 12 286 -314 0 -201 -2 -224 -20
-253 -10 -17 -28 -36 -38 -42 -21 -11 -496 -17 -522 -6 -8 3 -24 18 -34 32
-18 25 -19 44 -18 275 1 222 3 250 19 272 18 25 76 47 101 40 8 -2 109 -4 226
-4z m-558 -36 l34 -35 0 -239 0 -239 -34 -35 -33 -36 -252 0 -252 0 -30 32
-29 32 0 244 c0 232 1 245 21 270 11 15 28 30 37 34 9 4 127 7 261 7 l244 1
33 -36z m-669 -549 c16 -8 44 -33 62 -55 30 -37 32 -44 21 -70 -12 -29 -80
-90 -100 -90 -20 0 -90 60 -105 90 -14 28 -14 30 33 84 26 30 50 56 53 56 3 0
19 -7 36 -15z m822 -9 c40 -26 81 -74 81 -97 0 -20 -92 -109 -112 -109 -22 0
-108 89 -108 111 0 17 79 119 93 119 4 0 25 -11 46 -24z m-1586 -115 l28 -6
-36 -42 c-20 -24 -43 -43 -50 -43 -13 0 -75 67 -75 82 0 15 80 21 133 9z
m-178 -108 l24 -28 1 -257 0 -256 -31 -26 c-17 -14 -36 -26 -42 -27 -7 0 -114
-1 -239 -1 -253 -1 -268 3 -292 65 -13 36 -15 454 -2 495 20 61 18 60 299 61
l258 1 24 -27z m807 -5 l28 -32 0 -245 c-1 -333 19 -314 -310 -314 -242 0
-256 3 -297 52 -22 25 -22 33 -23 261 l0 235 31 38 30 37 256 0 256 0 29 -32z
m807 -5 l31 -38 0 -235 c-1 -228 -1 -236 -23 -261 -41 -49 -55 -51 -296 -52
-329 0 -310 -19 -311 313 l0 246 28 32 27 32 257 0 257 0 30 -37z m789 20 c50
-50 52 -59 51 -289 -1 -327 9 -317 -329 -318 -317 -2 -300 -20 -300 316 l0
252 27 28 27 28 253 0 c228 0 256 -2 271 -17z m-2202 -655 c13 -24 13 -32 0
-56 -17 -34 -33 -47 -68 -61 -32 -12 -69 12 -94 61 -14 27 -14 32 2 56 9 14
28 36 42 49 l25 23 39 -23 c22 -12 46 -34 54 -49z m1553 58 c31 -16 91 -80 91
-97 0 -6 -14 -30 -30 -55 -37 -53 -71 -58 -120 -18 -69 58 -71 100 -6 156 37
33 31 31 65 14z m-774 -31 c19 -20 35 -46 35 -58 0 -24 -51 -79 -83 -90 -24
-9 -97 58 -97 89 0 28 63 94 90 94 11 0 35 -16 55 -35z m-987 -166 l32 -31 0
-253 0 -253 -31 -31 -31 -31 -248 0 -248 0 -26 31 c-14 17 -26 38 -27 47 -1
25 -1 443 0 470 1 13 16 36 33 53 l32 29 241 0 241 0 32 -31z m807 -4 l35 -36
0 -246 0 -247 -36 -33 -37 -33 -242 0 -242 0 -36 37 -37 36 0 242 0 242 37 36
36 37 243 0 243 0 36 -35z m808 -2 l37 -36 0 -242 0 -242 -37 -36 -36 -37
-242 0 -242 0 -37 33 -36 33 0 247 0 246 35 36 36 35 243 0 243 0 36 -37z
m784 20 c65 -37 63 -10 63 -698 l0 -624 -35 -36 -36 -35 -252 0 -253 0 -27 28
-27 28 0 646 0 646 32 31 32 31 237 0 c203 0 242 -2 266 -17z m-2249 -607 c31
-16 72 -68 72 -90 0 -8 -18 -34 -39 -56 -32 -34 -44 -40 -63 -35 -30 10 -57
33 -74 67 -13 25 -13 32 1 58 16 32 53 70 67 70 5 0 21 -6 36 -14z m837 -30
c42 -41 45 -47 34 -68 -14 -28 -70 -88 -82 -88 -17 0 -79 54 -93 82 -15 29
-14 30 29 74 24 24 49 44 55 44 6 0 31 -20 57 -44z m760 1 c4 -13 5 -43 3 -68
-3 -43 -4 -44 -37 -44 -25 0 -39 7 -55 28 -24 33 -17 50 34 85 41 28 48 28 55
-1z m-1741 -166 l26 -24 0 -256 0 -255 -27 -28 -27 -28 -250 0 c-277 1 -282 2
-302 65 -11 35 -11 445 0 493 13 58 37 62 313 59 240 -2 242 -2 267 -26z m779
18 c56 -30 56 -35 57 -299 l0 -244 -32 -33 -32 -33 -248 0 -247 0 -36 35 -35
36 0 234 c0 255 5 281 59 303 37 14 486 15 514 1z m802 0 c60 -22 65 -44 65
-304 l0 -232 -33 -37 -33 -36 -249 0 -249 0 -33 32 -33 32 0 245 c1 264 1 268
55 299 27 16 467 16 510 1z"/>
<path d="M7607 3559 c-4 -13 -7 -37 -7 -54 0 -16 -9 -55 -19 -85 -10 -30 -26
-107 -35 -170 -17 -109 -24 -143 -77 -350 -12 -47 -25 -101 -30 -120 -17 -75
-27 -107 -53 -171 -14 -36 -26 -71 -26 -77 0 -7 -4 -20 -9 -30 -5 -9 -26 -57
-47 -107 -20 -49 -41 -97 -45 -105 -4 -8 -35 -71 -68 -140 -34 -69 -80 -156
-104 -193 -23 -36 -61 -99 -85 -139 -43 -74 -140 -215 -190 -276 -80 -100 -97
-120 -125 -157 -47 -59 -385 -395 -444 -441 -186 -143 -256 -195 -280 -208
-16 -8 -39 -26 -52 -40 -14 -14 -31 -26 -39 -26 -8 0 -29 -11 -46 -24 -17 -13
-51 -33 -76 -46 -25 -13 -58 -33 -75 -45 -76 -58 -420 -209 -690 -303 -55 -19
-179 -56 -230 -68 -170 -41 -232 -54 -255 -54 -14 0 -53 -7 -85 -17 -33 -9
-76 -17 -95 -18 -19 -1 -60 -9 -90 -18 -30 -9 -77 -19 -105 -23 l-50 -7 34 -9
c62 -17 399 6 464 31 16 6 44 11 63 11 19 0 51 7 71 15 19 8 47 15 62 15 14 0
39 7 55 15 15 8 40 15 55 15 14 1 37 7 51 15 14 8 37 14 51 15 14 0 34 7 45
15 10 8 31 15 45 15 14 0 34 7 45 15 10 8 28 15 40 15 11 0 29 7 40 15 10 8
27 15 37 15 11 0 31 6 45 13 15 8 43 21 62 29 48 20 172 78 190 88 8 5 51 27
95 50 44 22 94 50 110 60 17 11 39 24 50 30 11 6 34 19 50 30 17 11 37 23 45
27 23 10 75 47 78 56 2 4 8 7 14 7 5 0 35 19 66 43 31 24 74 53 94 65 20 13
38 26 40 30 2 4 34 31 72 61 95 74 129 105 280 256 161 161 217 221 287 310
30 39 57 71 61 73 4 2 17 20 30 40 12 20 41 63 65 94 24 31 43 61 43 67 0 6 4
11 8 11 5 0 14 10 21 23 6 12 20 36 31 52 11 17 24 39 30 50 6 11 19 34 30 50
11 17 24 39 30 50 6 11 19 34 30 50 11 17 23 37 26 45 23 54 47 101 55 106 5
3 9 13 9 23 0 10 7 24 15 31 8 7 15 23 15 35 0 12 7 28 15 35 8 7 15 18 15 25
0 8 8 28 17 47 9 18 22 45 30 60 7 14 13 34 13 45 0 10 7 27 15 37 8 11 15 27
15 37 0 9 7 30 15 45 8 16 15 38 15 49 0 11 7 29 15 39 8 11 15 31 15 45 1 14
7 37 15 51 8 14 15 39 15 55 0 17 7 39 15 49 8 11 15 38 15 60 1 23 7 52 15
66 8 14 14 42 15 62 0 20 5 49 11 65 26 66 50 445 31 479 -8 14 -10 13 -15 -7z"/>
<path d="M37 3546 c-10 -26 -8 -221 3 -285 14 -87 30 -181 38 -236 5 -27 13
-60 20 -72 7 -12 12 -37 12 -55 0 -18 7 -46 15 -62 8 -15 15 -40 15 -55 0 -14
7 -39 15 -55 8 -15 15 -38 15 -50 0 -12 7 -31 15 -42 8 -10 15 -28 15 -39 0
-11 7 -33 15 -49 8 -15 15 -36 15 -45 0 -10 7 -26 15 -37 8 -10 15 -27 15 -37
0 -11 6 -31 13 -45 8 -15 21 -43 29 -62 9 -19 29 -64 46 -100 16 -36 33 -72
36 -80 3 -8 17 -35 31 -59 14 -24 25 -48 25 -52 0 -4 12 -27 27 -51 45 -69 52
-82 63 -103 6 -11 18 -32 28 -46 9 -15 31 -50 47 -78 17 -28 33 -51 38 -51 4
0 7 -5 7 -11 0 -6 19 -36 43 -67 23 -31 50 -69 59 -83 9 -14 23 -32 30 -40 8
-8 31 -36 52 -64 127 -169 444 -483 621 -616 39 -29 75 -57 80 -61 37 -30 105
-78 110 -78 3 0 11 -5 18 -10 47 -40 61 -50 70 -50 5 0 26 -13 46 -28 20 -16
43 -32 51 -35 8 -4 29 -16 45 -27 17 -10 50 -29 75 -42 25 -13 51 -29 58 -35
7 -7 22 -13 32 -13 10 0 20 -4 22 -8 2 -5 39 -26 83 -47 44 -21 106 -51 138
-66 31 -16 64 -29 71 -29 8 0 28 -7 45 -15 17 -8 45 -22 62 -30 17 -8 36 -15
44 -15 7 0 26 -7 41 -15 16 -8 39 -15 51 -15 12 0 34 -6 50 -14 42 -21 93 -37
138 -45 23 -4 47 -11 55 -16 8 -5 35 -12 60 -16 25 -4 63 -12 85 -18 188 -47
468 -74 560 -53 l40 9 -50 7 c-27 4 -61 12 -75 17 -26 9 -98 24 -300 59 -102
18 -248 53 -395 94 -67 20 -250 86 -357 130 -48 20 -93 36 -100 36 -7 0 -52
23 -100 50 -48 28 -93 50 -100 50 -6 0 -51 25 -101 55 -49 30 -93 55 -97 55
-4 0 -30 15 -57 32 -27 18 -56 38 -65 43 -48 30 -138 96 -143 105 -4 6 -21 16
-38 24 -18 7 -54 33 -82 58 -27 25 -57 49 -66 54 -9 5 -42 32 -74 59 -135 116
-213 193 -312 303 -58 64 -110 122 -117 127 -6 6 -20 23 -30 40 -11 16 -45 61
-77 100 -64 79 -219 307 -251 369 -12 23 -31 55 -43 71 -31 43 -180 352 -200
414 -4 14 -18 45 -31 69 -13 25 -24 54 -24 64 0 11 -13 52 -29 91 -16 40 -33
88 -36 107 -4 19 -13 49 -20 65 -8 17 -25 80 -40 140 -14 61 -30 126 -35 145
-5 19 -14 69 -20 110 -7 41 -16 91 -20 110 -5 19 -16 73 -26 120 -28 144 -29
147 -37 126z"/>
</g>
</svg>
